<svg id="Group_12892" data-name="Group 12892" xmlns="http://www.w3.org/2000/svg" xmlns:xlink="http://www.w3.org/1999/xlink" width="553" height="450" viewBox="0 0 553 450">
  <defs>
    <clipPath id="clip-path">
      <rect id="Rectangle_866" data-name="Rectangle 866" width="416.607" height="283.688" fill="none"/>
    </clipPath>
  </defs>
  <rect id="banner" width="553" height="450" rx="25" fill="#ebe2db"/>
  <g id="Group_14666" data-name="Group 14666" transform="translate(68.326 83.346)">
    <g id="Group_14665" data-name="Group 14665" clip-path="url(#clip-path)">
      <path id="Path_11714" data-name="Path 11714" d="M355.046,85.559c-1.808-4.6-.189-9.765,2.2-13.846,2.422-4.188,5.975-7.585,9.658-10.651,12-9.9,25.182-18.145,38.254-26.5l1.5-.961c4.241-2.109,4.479-7.623,4.509-11.9.193-4.185.915-8.272.62-12.431-.34-3.115-.464-7,2.812-8.666a5.421,5.421,0,0,1,1.972-.6l.04,1.344c-3.323.215-4.635,3.887-4.708,6.807-.112,1.6-.567,5.831-2.762,5.842-2.787-.792-5.592.93-8.432.4-4.358-.618-8.374-2.175-12.754-1.4-7.128.944-13.8,4.072-19.8,7.946-7.316,4.651-15.507,7.793-22.9,12.26-8.829,5.2-17.8,12.488-19.476,23.128-.458,6.5,3.931,12.266,8.842,16.119,4.562,3.455,8.989,7.3,13.559,10.717,4.6,3.459,9.716,6.007,14.8,8.7,9.013,4.838,13.511,11.183,13.715,21.563.244,8.767-1.894,17.292-2.769,25.944-1.3,11.355-1.333,23.03,1.935,34.058a62.986,62.986,0,0,0,18.256,28.691c.1.077-.04.236-.131.147-8.8-7.56-15.811-17.346-19.236-28.5-3.6-11.126-3.737-23.056-2.557-34.582.747-8.564,2.739-17.085,2.474-25.687-.464-14.687-9.115-17.766-20.338-23.924a93.558,93.558,0,0,1-14.123-10.261c-4.421-3.8-9.569-6.913-12.833-11.906a17.45,17.45,0,0,1-3.221-11.3c1.8-11.093,11.348-18.7,20.576-23.832,7.518-4.362,15.731-7.286,23.062-11.914,7.228-4.5,15.784-8.492,24.47-8.224,3.658.249,7.022,1.748,10.615,1.489,2.137-.351,4.4-1.219,6.619-.549l-.314-.013a1.943,1.943,0,0,0,.941-1.2c.749-1.842.546-3.91.865-5.851.388-2.859,2.458-5.9,5.643-6.019a.671.671,0,0,1,.119,1.335c-2.973.359-3.978,3.356-3.545,6.027.668,4.782-.1,9.623-.337,14.359-.024,3.076-.1,6.234-1.343,9.127A8.583,8.583,0,0,1,407.6,35.07c-.911.582-3.591,2.242-4.553,2.846-12.066,7.6-24.211,15.2-35.439,24-6.841,5.374-15.168,14.117-12.383,23.556a.1.1,0,0,1-.054.139.1.1,0,0,1-.124-.054" transform="translate(-103.865 0)" fill="#3f132c"/>
      <path id="Path_11715" data-name="Path 11715" d="M364.138,127.359a38.39,38.39,0,0,1,5.658,13.9c.464,2.483.474,5.037.783,7.478a34.486,34.486,0,0,0,1.754,7.2c3.306,9.372,8.452,17.675,13.47,26.25.06.092-.081.205-.156.12a54.718,54.718,0,0,1-12.265-18.826c-1.884-4.681-2.518-9.727-3.434-14.641-.9-4.863-2.424-9.54-3.752-14.3-.71-2.359-1.471-4.708-2.235-7.09a.1.1,0,0,1,.176-.087" transform="translate(-116.646 -40.804)" fill="#3f132c"/>
      <path id="Path_11716" data-name="Path 11716" d="M415.641,65.219c-4.2,4.773-7.928,9.932-10.185,15.872a66.7,66.7,0,0,0-3.424,21.324c-.053,5.857.27,12.106.339,17.968a102.452,102.452,0,0,1-2.931,23.041.1.1,0,0,1-.2-.032c.5-8.574,1.043-17.037,1.038-25.573a122.4,122.4,0,0,1,.672-15.467l1.2-10.245.535-5.132a35.59,35.59,0,0,1,.787-5.175,30.972,30.972,0,0,1,8.117-13.327,30.1,30.1,0,0,1,3.924-3.4c.09-.068.213.067.128.149" transform="translate(-127.955 -20.849)" fill="#3f132c"/>
      <path id="Path_11717" data-name="Path 11717" d="M397.917,214.251c1.431-17.813,1.114-23.616,13.221-37.693a33.825,33.825,0,0,0,5.432-8.261,13.252,13.252,0,0,0,1.1-4.721c.109-3.33-.95-6.71-.754-10.091a13.53,13.53,0,0,1,1.067-5.049,8.011,8.011,0,0,1,3.5-3.819,10,10,0,0,1,5.117-1.124.425.425,0,0,1,.4.444.434.434,0,0,1-.42.41c-7.524,1.432-5.51,10.275-3.9,15.58.531,1.884,1.839,3.192,2.9,4.81a20.756,20.756,0,0,1,2.818,7.7,18.155,18.155,0,0,1-.966,6.1c-2.613,8.382-2.831,16.409-12.629,19.41-2.658.817-4.326,3.456-5.561,5.82-2.931,5.945-7.133,11.4-8.393,18.02-.016.115-.211.1-.2-.028.565-6.151,3.951-11.515,6.5-16.985a20.662,20.662,0,0,1,3.879-6.422,7.444,7.444,0,0,1,3.523-2.178l-.182.046a14.023,14.023,0,0,0,5.966-4.032,18.919,18.919,0,0,0,2.959-6.718c.69-2.471,1.392-5.036,2.137-7.505.7-2.382,1.433-4.695.7-7.112a23.525,23.525,0,0,0-2.108-5.158c-1.083-1.632-2.466-3.275-2.939-5.253-1.212-4.981-2.875-11.556,1.6-15.382a7.519,7.519,0,0,1,3.83-1.566l-.015.853a8.789,8.789,0,0,0-4.706.876c-3.058,1.489-4.244,5.054-4.263,8.285-.179,4.258,1.742,8.417.92,12.712a17.65,17.65,0,0,1-.711,2.535c-2.372,6.54-7.66,11.246-11.395,16.883-3.98,5.491-5.645,11.977-6.6,18.622-.548,3.332-1.055,6.683-1.648,10.019-.014.115-.21.1-.2-.024" transform="translate(-127.53 -45.985)" fill="#3f132c"/>
      <path id="Path_11718" data-name="Path 11718" d="M392.022,162.035c-1.863-9.714-6-19.4-13.288-26.269a.263.263,0,0,1,.283-.441c5.215,3.044,9.057,8.19,11.477,13.589-2.734-5.149-6.467-10.246-11.706-13.113l.283-.441a35.288,35.288,0,0,1,5.1,5.631,40.2,40.2,0,0,1,7.931,21.034c.007.049-.075.063-.081.01" transform="translate(-121.349 -43.359)" fill="#3f132c"/>
      <path id="Path_11719" data-name="Path 11719" d="M368.037,136.62a31.955,31.955,0,0,1,5.766,7.9,34.344,34.344,0,0,1,3.716,9.039c.011.047-.065.071-.079.02-1.771-6.277-6.5-11.477-9.4-16.956" transform="translate(-117.954 -43.786)" fill="#3f132c"/>
      <path id="Path_11720" data-name="Path 11720" d="M371.143,146.969a58.076,58.076,0,0,1,5.326,9.211c1.586,3.172,3.158,6.358,4.5,9.644.02.045-.054.081-.075.033-1.553-3.183-3.292-6.272-5.006-9.371a73.893,73.893,0,0,1-4.82-9.476c-.018-.041.046-.079.071-.039" transform="translate(-118.925 -47.097)" fill="#3f132c"/>
      <path id="Path_11721" data-name="Path 11721" d="M373.329,158.95a43.8,43.8,0,0,1,5.06,7.7,92.331,92.331,0,0,1,4.279,8.208c-1.584-2.584-3.172-5.3-4.838-7.873a54.88,54.88,0,0,1-4.57-7.991c-.019-.039.04-.081.069-.044" transform="translate(-119.626 -50.938)" fill="#3f132c"/>
      <path id="Path_11722" data-name="Path 11722" d="M375.328,168.844a43.573,43.573,0,0,1,5.024,7.11c1.5,2.481,3.162,4.973,4.534,7.481-1.76-2.261-3.392-4.761-5.078-7.121a43.574,43.574,0,0,1-4.547-7.425.041.041,0,0,1,.068-.045" transform="translate(-120.267 -54.109)" fill="#3f132c"/>
      <path id="Path_11723" data-name="Path 11723" d="M328.845,96.529Q341.444,107,354.81,116.5c.041.028,0,.1-.046.067-4.577-3-9.11-6.063-13.535-9.285-2.219-1.6-4.441-3.209-6.538-4.976a48.983,48.983,0,0,1-5.907-5.727c-.033-.037.026-.093.06-.055" transform="translate(-105.37 -30.933)" fill="#3f132c"/>
      <path id="Path_11724" data-name="Path 11724" d="M328.824,70.335a13.771,13.771,0,0,0,.026,14.219,25.014,25.014,0,0,0,5.442,5.895c8.277,7.117,17.047,13.632,25.494,20.549,2.41,1.985,4.807,3.987,7.124,6.083,2.244,2.136,4.8,4.24,6.335,6.921-3.7-4.986-8.929-8.744-13.715-12.687-8.524-6.83-17.435-13.182-25.792-20.226a41.154,41.154,0,0,1-3.826-3.7c-.256-.336-.812-1.1-1.065-1.444a22.223,22.223,0,0,1-1.208-2.064,13.543,13.543,0,0,1-.832-9.317,14.429,14.429,0,0,1,1.95-4.275c.028-.044.1.005.067.047" transform="translate(-104.589 -22.521)" fill="#3f132c"/>
      <path id="Path_11725" data-name="Path 11725" d="M336.533,59.729c-3.163,3.022-5.178,7.912-3.216,12.095a29.054,29.054,0,0,0,3.648,5.631c4.239,5.365,8.982,10.318,13.215,15.7,2.7,3.561,5.746,7.588,7.411,11.5-4.322-8.077-10.69-14.739-16.753-21.519-1.531-1.694-3.046-3.407-4.5-5.178-1.761-2.227-3.639-4.642-4.294-7.519-.033-.268-.15-1.058-.183-1.322a10.14,10.14,0,0,1,.316-3.072,12.606,12.606,0,0,1,4.309-6.378c.04-.033.09.03.052.063" transform="translate(-106.356 -19.119)" fill="#3f132c"/>
      <path id="Path_11726" data-name="Path 11726" d="M359.883,100.055c-4.61-8.532-8.853-17.241-13.1-25.952q-1.614-3.256-3.273-6.486c-1.144-2.123-2.321-4.406-2.387-6.892-.248-5.094,3.73-9.212,7.954-11.424.047-.026.083.05.036.073-4.084,2.254-7.939,6.389-7.583,11.33.114,2.436,1.278,4.567,2.449,6.665q1.719,3.207,3.385,6.438c4.394,8.548,9.05,17.523,12.522,26.247" transform="translate(-109.323 -15.799)" fill="#3f132c"/>
      <path id="Path_11727" data-name="Path 11727" d="M357.489,44.386c-3.709,2.463-7.5,5.921-8.293,10.47a9.086,9.086,0,0,0-.087,2.352,42.491,42.491,0,0,0,2.262,9.493c1.411,4.144,3.1,8.2,4.551,12.357,1.382,4.189,2.628,8.463,3.6,12.735-1.284-4.131-2.437-8.5-3.985-12.6-1.521-4.111-3.284-8.135-4.782-12.279a40.36,40.36,0,0,1-2.49-9.635,9.882,9.882,0,0,1,.119-2.565,12.572,12.572,0,0,1,3.7-6.525,21.181,21.181,0,0,1,5.362-3.877c.045-.024.082.047.039.072" transform="translate(-111.606 -14.201)" fill="#3f132c"/>
      <path id="Path_11728" data-name="Path 11728" d="M369.75,38.813A22.142,22.142,0,0,0,363.54,52.2c-.555,4.07.23,8.282,1.135,12.252,1.092,5.266,2.309,11.078,3.114,16.37a.041.041,0,0,1-.081.012c-.657-3.639-1.487-7.249-2.307-10.857-.9-4.258-2.42-9.33-2.755-13.645a22.894,22.894,0,0,1,.9-8.369c1.116-3.451,3.3-7.32,6.2-9.153" transform="translate(-116.209 -12.439)" fill="#3f132c"/>
      <path id="Path_11729" data-name="Path 11729" d="M376.5,35.574c-4.112,6.157-7.144,13.735-5.231,21.158.328,1.583,1.116,5.815,1.418,7.456.536,3.326,1.211,6.727,1.562,10.035-.688-3.258-1.24-6.667-1.963-9.959-.565-2.892-1.574-7.041-2.1-9.9a19.758,19.758,0,0,1,1.052-10.126,28.012,28.012,0,0,1,5.2-8.713c.033-.038.092.012.063.052" transform="translate(-118.557 -11.38)" fill="#3f132c"/>
      <path id="Path_11730" data-name="Path 11730" d="M385.978,29.79a29.035,29.035,0,0,0-7.172,17.767c-.135,4.88.55,9.852.987,14.739.165,1.635.417,3.362.734,4.924-.976-3.109-1.131-6.547-1.613-9.8-.811-6.5-1.545-13.448,1.224-19.649a21.628,21.628,0,0,1,5.787-8.044c.038-.034.092.029.054.062" transform="translate(-121.203 -9.525)" fill="#3f132c"/>
      <path id="Path_11731" data-name="Path 11731" d="M402.849,21.1c-6.01,4.547-8.8,12.057-9.521,19.35-.411,5.34.07,11.4.03,16.813.01,1.27.022,3.663-.01,4.918l-.014.352-.011.177-.009.089-.007.048,0,.024c.011-.017-.032.093-.088.016a.042.042,0,0,1,.024-.053c.1-7.238-.908-15-.559-22.437.33-5.632,2.052-11.4,5.806-15.736a16.027,16.027,0,0,1,4.326-3.633c.044-.027.085.048.039.071" transform="translate(-125.827 -6.738)" fill="#3f132c"/>
      <path id="Path_11732" data-name="Path 11732" d="M419.137,18.381c-4.409,3.741-9.126,8.206-10.01,14.153a63.418,63.418,0,0,0-.431,8.952c-.014,3,.251,6.078.393,9.034a88.133,88.133,0,0,1-.8-9.023c-.022-4.47-.506-9.29,1.408-13.479a24.119,24.119,0,0,1,9.4-9.705.041.041,0,0,1,.045.068" transform="translate(-130.831 -5.867)" fill="#3f132c"/>
      <path id="Path_11733" data-name="Path 11733" d="M430.536,20.719c-4.628,3.408-8.065,8.213-10.936,13.142a71.89,71.89,0,0,0-3.931,8.77l-1.224,3.658a.041.041,0,0,1-.05.029.043.043,0,0,1-.029-.051l1.072-3.716a59.061,59.061,0,0,1,4.568-10.674,30.172,30.172,0,0,1,7.227-9.111,14.924,14.924,0,0,1,3.266-2.119c.044-.02.082.05.037.073" transform="translate(-132.801 -6.616)" fill="#3f132c"/>
      <path id="Path_11734" data-name="Path 11734" d="M432.486,32.206A45.669,45.669,0,0,0,421.158,48.9a.041.041,0,0,1-.077-.027,37.386,37.386,0,0,1,7.324-13.5,16.536,16.536,0,0,1,4.036-3.228.041.041,0,0,1,.045.068" transform="translate(-134.953 -10.298)" fill="#3f132c"/>
      <path id="Path_11735" data-name="Path 11735" d="M435.2,38.383c-3.837,2.344-7.4,5.225-9.458,9.314a.041.041,0,0,1-.074-.035,18.041,18.041,0,0,1,6.287-8.066,8.919,8.919,0,0,1,3.22-1.29.041.041,0,0,1,.025.077" transform="translate(-136.423 -12.277)" fill="#3f132c"/>
      <path id="Path_11736" data-name="Path 11736" d="M418.012,45.893c-4.6,4.924-9.34,9.706-14.346,14.217-5.175,4.284-10.5,8.428-15.551,12.878a111.591,111.591,0,0,0-9.835,9.148c-.029.043-.1-.007-.065-.05a111.642,111.642,0,0,1,9.63-9.4c4.968-4.542,10.2-8.753,15.279-13.17l4.905-4.589c3.3-2.925,6.684-6.446,9.983-9.029" transform="translate(-121.212 -14.708)" fill="#3f132c"/>
      <path id="Path_11737" data-name="Path 11737" d="M436.107,144.208c-4.269.394-6.7,3.564-6.935,7.629-.111,3.87.147,7.954-.071,11.821,0,.052-.091.048-.08-.011,0-1.961-.139-3.938-.241-5.9a48.3,48.3,0,0,1-.136-7.454,7.516,7.516,0,0,1,1.861-4.2,6.668,6.668,0,0,1,5.607-1.964.041.041,0,0,1,0,.082" transform="translate(-137.339 -46.175)" fill="#3f132c"/>
      <path id="Path_11738" data-name="Path 11738" d="M423.838,153c-.349,4.095.329,8.206.624,12.285.08,8.516-5.28,15.751-10.4,22.051a43.984,43.984,0,0,0-6.165,10.593c.988-3.68,3.576-7.526,5.836-10.835,4.975-6.276,9.9-13.507,9.917-21.8-.118-3.92-.8-8.62.191-12.3" transform="translate(-130.727 -49.035)" fill="#3f132c"/>
      <path id="Path_11739" data-name="Path 11739" d="M398.6,236.478a46.254,46.254,0,0,1,2.376-14.67,56.108,56.108,0,0,1,6.058-13.562c.025-.042.1,0,.07.042a59.431,59.431,0,0,0-5.5,13.7c-1.222,4.786-2.131,9.613-2.921,14.494a.041.041,0,0,1-.082,0" transform="translate(-127.748 -66.736)" fill="#3f132c"/>
      <path id="Path_11740" data-name="Path 11740" d="M428.2,167.533a12.482,12.482,0,0,1-.048,9.958c-2.878,4.818-6.726,8.875-10.17,13.263-.029.039-.1-.005-.066-.048,3.153-4.511,6.9-8.716,9.51-13.567a16.225,16.225,0,0,0,.7-9.58.041.041,0,0,1,.077-.026" transform="translate(-133.938 -53.685)" fill="#3f132c"/>
      <path id="Path_11741" data-name="Path 11741" d="M431.26,179.643c.989,3.943-1.49,7.178-4.568,9.326a58.732,58.732,0,0,0-7.755,7.406c-.03.039-.1-.008-.065-.05a52.357,52.357,0,0,1,7.394-7.85c2.713-2.222,5.007-5.117,4.914-8.817-.009-.046.07-.065.08-.016" transform="translate(-134.243 -57.565)" fill="#3f132c"/>
      <path id="Path_11742" data-name="Path 11742" d="M430.195,187.541c-1.25,5.427-6.684,8.227-10.326,11.876a42.5,42.5,0,0,0-8.741,13.086c-.018.046-.1.016-.075-.033a41.2,41.2,0,0,1,8.35-13.512c2.687-2.98,6.116-5.06,8.673-8.106a11.747,11.747,0,0,0,2.041-3.332c.013-.045.09-.028.078.02" transform="translate(-131.739 -60.091)" fill="#3f132c"/>
      <path id="Path_11743" data-name="Path 11743" d="M434.074,200.077a6.069,6.069,0,0,1-1.992,3.34,17.572,17.572,0,0,1-2.954,2.575c.771-1,1.716-1.958,2.456-3A15.559,15.559,0,0,1,434,200.042a.043.043,0,0,1,.073.035" transform="translate(-137.533 -64.108)" fill="#3f132c"/>
      <path id="Path_11744" data-name="Path 11744" d="M425.776,206.932c-1.931,3.654-5.518,6.014-8.952,8.1-4.666,3.571-7.56,9-10.049,14.226-.017.047-.1.019-.075-.031,2.265-5.435,5.047-10.988,9.667-14.814,1.254-.919,2.647-1.683,3.884-2.585a24.6,24.6,0,0,0,5.454-4.934c.022-.043.1-.007.071.039" transform="translate(-130.343 -66.302)" fill="#3f132c"/>
      <path id="Path_11745" data-name="Path 11745" d="M404.77,223.9c-2.379,6.135-4.723,12.313-5.453,18.9,0,.048-.086.047-.082-.007a50.488,50.488,0,0,1,1.533-9.812,25.429,25.429,0,0,1,3.931-9.119.041.041,0,0,1,.071.041" transform="translate(-127.952 -71.739)" fill="#3f132c"/>
      <path id="Path_11746" data-name="Path 11746" d="M403.333,238.972a23.775,23.775,0,0,1-1.5,5.32,50.156,50.156,0,0,0-1.484,5.353,23.871,23.871,0,0,1,.858-5.536,14.178,14.178,0,0,1,2.05-5.168.042.042,0,0,1,.076.03" transform="translate(-128.309 -76.574)" fill="#3f132c"/>
      <path id="Path_11747" data-name="Path 11747" d="M403.526,244.333a15.734,15.734,0,0,1-1.243,4.072c-.537,1.321-.839,2.793-1.26,4.109a18.072,18.072,0,0,1,.637-4.3,8.089,8.089,0,0,1,1.794-3.917.043.043,0,0,1,.073.035" transform="translate(-128.524 -78.292)" fill="#3f132c"/>
      <path id="Path_11748" data-name="Path 11748" d="M390.676,122.025a104.577,104.577,0,0,1,4.232-18.839,110.136,110.136,0,0,1,7.064-17.962c.021-.046.1-.01.073.037-5.512,11.389-7.994,24.869-11.369,36.764" transform="translate(-125.209 -27.307)" fill="#3f132c"/>
      <path id="Path_11749" data-name="Path 11749" d="M393.43,126.847a76.509,76.509,0,0,1,2.56-15.958,115.874,115.874,0,0,1,4.873-15.41.041.041,0,0,1,.076.029,129.828,129.828,0,0,0-4.314,15.527c-.927,4.583-2.164,11.177-3.114,15.82a.041.041,0,0,1-.081-.009" transform="translate(-126.092 -30.592)" fill="#3f132c"/>
      <path id="Path_11750" data-name="Path 11750" d="M395.624,132.8a52.024,52.024,0,0,1,.909-11.954,56.441,56.441,0,0,1,2.976-11.611c.017-.046.094-.02.076.029-2.613,7.525-2.416,16.012-3.961,23.536" transform="translate(-126.778 -35.001)" fill="#3f132c"/>
      <path id="Path_11751" data-name="Path 11751" d="M398.53,138.9c-1.156-7.115.223-14.361,1.479-21.373a.041.041,0,0,1,.08.014c-.482,3.54-.832,7.1-1.025,10.66-.159,2.853-.121,8.276-.534,10.7" transform="translate(-127.587 -37.657)" fill="#3f132c"/>
      <path id="Path_11752" data-name="Path 11752" d="M400.56,145.544a30.526,30.526,0,0,1-.513-8.011,55.488,55.488,0,0,1,.629-8.045c-.037,2.634-.1,5.373.023,8.043a46.837,46.837,0,0,1-.058,8.009.042.042,0,0,1-.082,0" transform="translate(-128.195 -41.5)" fill="#3f132c"/>
      <path id="Path_11753" data-name="Path 11753" d="M385.739,116.814c.351-6.985,2.6-13.738,5.25-20.153a140.806,140.806,0,0,1,9.451-18.587c.024-.044.1,0,.071.041a161.1,161.1,0,0,0-7.96,16.37,134.754,134.754,0,0,0-6.811,22.328" transform="translate(-123.627 -25.016)" fill="#3f132c"/>
      <path id="Path_11754" data-name="Path 11754" d="M383.685,117.592c.542-7.044,3.558-13.573,6.362-19.959.735-1.576,2.289-4.731,3.091-6.277.021-.044.1-.012.073.036-.731,1.585-2.128,4.791-2.791,6.4-2.738,6.356-4.742,13.4-6.736,19.8" transform="translate(-122.969 -29.272)" fill="#3f132c"/>
      <path id="Path_11755" data-name="Path 11755" d="M379.624,114.67c-.368-3.829,1.354-7.532,3.225-10.762,1.945-3.238,3.893-6.427,6.073-9.51.031-.041.1.009.063.053-3.759,6.331-7.952,13.09-9.361,20.219" transform="translate(-121.651 -30.249)" fill="#3f132c"/>
      <path id="Path_11756" data-name="Path 11756" d="M375.222,111.3c-1.733-4.663-.644-10.189,3.407-13.3a64.776,64.776,0,0,0,9.024-11.03c.025-.043.1,0,.07.042-1.218,2.059-2.552,4.046-3.972,5.977a52.128,52.128,0,0,1-4.668,5.479,14.089,14.089,0,0,0-2.253,2.658,11.81,11.81,0,0,0-1.316,3.169,16.743,16.743,0,0,0-.215,6.985c.014.046-.064.073-.078.024" transform="translate(-120.002 -27.866)" fill="#3f132c"/>
      <path id="Path_11757" data-name="Path 11757" d="M371.468,111.663c-.413-3.989,2.454-7.61,5.573-9.758a.041.041,0,0,1,.048.066,14.48,14.48,0,0,0-3.528,4.415,49.888,49.888,0,0,0-2.011,5.281.042.042,0,0,1-.082,0" transform="translate(-119.04 -32.658)" fill="#3f132c"/>
      <path id="Path_11758" data-name="Path 11758" d="M577.971,398.06a60,60,0,0,0-5.241,6.3c2.654,2.19,5.043,4.314,7.763,6.9a35.3,35.3,0,0,0,5.043-6.1,62.534,62.534,0,0,0-7.565-7.1" transform="translate(-183.556 -127.576)" fill="#3f132c"/>
      <path id="Path_11759" data-name="Path 11759" d="M596.817,396.791a59.754,59.754,0,0,0-5.241,6.3c2.653,2.19,5.042,4.314,7.763,6.9a35.306,35.306,0,0,0,5.042-6.1,62.536,62.536,0,0,0-7.564-7.1" transform="translate(-189.596 -127.169)" fill="#3f132c"/>
      <path id="Path_11760" data-name="Path 11760" d="M514.714,250.915V295.27s-.818,5.417,6.541,8.585,14,4.7,11.446,15.024-16.659,16.761-24.835,13.8.1-17.17-7.358-17.17-52.59,27.39-83.71,31.683-51.049-1.227-52.276-23.915,0-65.92,0-65.92l5.9-6.438s-2.684,68.679-2.224,74.044,3.267,17.987,39.7,15.177,82.968-32.653,93.7-32.576-1.074,13.49,7.358,16.479,21-4.829,21.309-6.975-11.114-3.832-15.637-9.658-3.7-72.946-3.7-72.946l4.905-10.2Z" transform="translate(-116.653 -71.873)" fill="#3f132c"/>
      <path id="Path_11761" data-name="Path 11761" d="M525.587,290.183s-1.526,3.914,0,5.573,3.052,3.715,0,7.7-7.762,6.037-10.548,2.388c0,0-4.909,5.772-8.425,3.45s-1.326-10.615,3.45-14.993c0,0-8.1,14.7,4.286,9.09a.494.494,0,0,0,.291-.444c.007-1.155.131-5.263,1.476-7.585,0,0-.339,8.938,6.693,6.463a.268.268,0,0,0,.162-.341c-.35-.955-1.488-4.473-.237-6.918a21.625,21.625,0,0,1,2.853-4.378" transform="translate(-161.812 -93.002)" fill="#3f132c"/>
      <path id="Path_11762" data-name="Path 11762" d="M250.428,306.906a4.366,4.366,0,0,1,8.732,0,4.366,4.366,0,1,1-8.732,0" transform="translate(-80.261 -96.979)" fill="#3f132c"/>
      <path id="Path_11763" data-name="Path 11763" d="M282.513,309.387l5.368,6.979s2.923-15.21,13.838-15.508,11.751,11.691,2.8,15.508-25.947,6.323-25.947,24.038,17.951,27.651,37.936,21.831c13.572-3.953,49.552-30.771,80.138-8.974,0,0-12.167-18.122-33.233-14.889-17.594,2.7-34.346,23.842-56.389,21.9-22.312-1.971-19.909-21.347-19.909-21.347s-.55-14.262,14.481-19.869c0,0,6.86-2.147,8.857-5.159v34.528A4.579,4.579,0,0,0,315.037,353h7.917l-1.928-1.653a7.627,7.627,0,0,1-2.664-5.792V314.636s-1.014-14.673-15.866-14.673-19.982,9.424-19.982,9.424" transform="translate(-89.282 -96.136)" fill="#3f132c"/>
      <path id="Path_11764" data-name="Path 11764" d="M246.289,371.223l-1.333,1.143h16.169l-1.333-1.143a8.019,8.019,0,0,1-2.8-6.088V333.428a4.13,4.13,0,0,0-4.13-4.13h-7.905l1.333,1.143a8.015,8.015,0,0,1,2.8,6.082v28.612a8.018,8.018,0,0,1-2.8,6.088" transform="translate(-78.507 -105.538)" fill="#3f132c"/>
      <path id="Path_11765" data-name="Path 11765" d="M146.5,337.407q0-4.63,7.006-15.847,6.738-10.949,11.262-14.332a419.756,419.756,0,0,0,36.095-29.919q26.248-24.591,26.25-35.779,0-4.348-4.084-4.35-8.79,0-34.536,25.769a327.6,327.6,0,0,0-35.2,41.784,102.33,102.33,0,0,0-6.581,11.207c-1.368,2.814-2.471,5.251-3.345,7.414-.219.552-.438,1.1-.648,1.669a28.779,28.779,0,0,0-2.172,10.26c0,4.971,2.448,7.272,7.334,7.457,2.725.1,29.662-.829,67.745-34.7v-1.8s-36.506,31.469-65.421,33.343c-2.535.116-3.71-.883-3.71-2.172M195,267.034q23.942-27.1,27.4-27.1,1.6,0,1.6,1.422,0,14.129-58,61.313,6.208-9.684,29-35.633" transform="translate(-45.045 -76.015)" fill="#3f132c"/>
      <path id="Path_11766" data-name="Path 11766" d="M43.4,369.842c16.9-4.011,44.1-11.977,81.586-37.14l-.876-2.981S81.789,359.909,37.09,366.505c-9.655,1.009-25.314-.908-32.162-15.459L0,362.469s6.47,9.019,22.6,9.844h0a30.27,30.27,0,0,0,4.318.044A73.323,73.323,0,0,0,43.4,369.842" transform="translate(0 -105.674)" fill="#3f132c"/>
    </g>
  </g>
</svg>
