<svg id="Group_14848" data-name="Group 14848" xmlns="http://www.w3.org/2000/svg"
    xmlns:xlink="http://www.w3.org/1999/xlink" width="111.497" height="75.909"
    viewBox="0 0 111.497 75.909">
    <defs>
        <clipPath id="clip-path">
            <rect id="Rectangle_982" data-name="Rectangle 982" width="111.497" height="75.909"
                fill="none" />
        </clipPath>
    </defs>
    <g id="Group_14816" data-name="Group 14816" clip-path="url(#clip-path)">
        <path id="Path_12698" data-name="Path 12698"
            d="M553.592,0h-.022a1.4,1.4,0,0,0-.576.168,2.223,2.223,0,0,0-.966,2,3.233,3.233,0,0,1-.177,1.009.572.572,0,0,1-.228.309,2.606,2.606,0,0,0-1.159.042,4.052,4.052,0,0,1-.552.119,20.966,20.966,0,0,1-2.84-.393,10.065,10.065,0,0,0-4.507,1.076c-1.414.636-2.644,1.592-4.059,2.232-3.725,1.829-8.678,3.762-9.628,8.295a2.935,2.935,0,0,0-.027.933,6.2,6.2,0,0,0,2.49,3.982c.307.247.608.476.908.72a44.469,44.469,0,0,0,3.943,3.038c.167.519.332,1.033.486,1.55.191.63.357,1.263.536,1.9a35.255,35.255,0,0,1,.829,3.9,12.133,12.133,0,0,0,.745,2.413,14.159,14.159,0,0,0,2.092,3.44c.247.31.509.607.781.895-.453,4.494.108,9.28,2.76,13.051a17.745,17.745,0,0,0,3.112,3.439.026.026,0,0,0,.035-.039,16.428,16.428,0,0,1-5.052-8.32l.047-.319a14.607,14.607,0,0,1,.61-2.565c.259-.706.526-1.462.8-2.163a.011.011,0,0,0-.019-.011,5.73,5.73,0,0,0-.647,1.168,8.582,8.582,0,0,0-.405,1.272,12.242,12.242,0,0,0-.4,2.574q-.047-.192-.091-.386c.1-.625.21-1.245.336-1.861a23.537,23.537,0,0,1,.714-2.876,16.353,16.353,0,0,1,.734-1.837c.052-.119.157-.33.221-.443l.234-.437a.011.011,0,0,0,0-.015.011.011,0,0,0-.015,0c-.086.145-.3.5-.38.642s-.271.522-.344.663a16.817,16.817,0,0,0-.746,1.848c-.181.54-.343,1.091-.472,1.649a18.426,18.426,0,0,1,.739-3.254,9.157,9.157,0,0,1,1.081-2.047c1-1.5,2.421-2.779,3.054-4.515.59-1.559-.1-2.585-.064-4.082a2.515,2.515,0,0,1,.832-2.019,1.758,1.758,0,0,0-.4.706,4.46,4.46,0,0,0-.092,1.606l.043.791c.023.461.069,1.13.065,1.582,0,.014.021.014.022,0,.019-.266.018-.529.021-.794v-.793c0-.452-.032-1.131-.006-1.577a2.222,2.222,0,0,1,.647-1.519,1.931,1.931,0,0,0-.386.673,4.162,4.162,0,0,0-.051,2.039h0c0,.677.115,1.369.068,2.046a7.529,7.529,0,0,1-.808,2.709,11.654,11.654,0,0,1-1.082,1.735c-.245.314-.521.662-.751.985a11.763,11.763,0,0,0-1.582,2.892c0,.013.017.02.021.007a8.81,8.81,0,0,1,.726-1.474,15.391,15.391,0,0,1,.924-1.36c.319-.437.7-.86,1.018-1.3q.089-.125.176-.252c.421-.513.835-1.035,1.221-1.57a7.8,7.8,0,0,0,.5-.758,2.987,2.987,0,0,0,.271-1.585c.117.163.24.319.34.488a5.607,5.607,0,0,1,.411.907,3.426,3.426,0,0,1,.233.937,4.412,4.412,0,0,1-.267,1.439c-.1.331-.2.667-.292,1a8.441,8.441,0,0,1-1.072,2.8,3.339,3.339,0,0,1-1.141.875c-.127.068-.315.14-.452.2a1.6,1.6,0,0,0-.492.229,4.551,4.551,0,0,0-1.444,2.065c-.411.884-.9,1.73-1.254,2.645a7.148,7.148,0,0,0-.483,1.9.026.026,0,0,0,.052.007,7.689,7.689,0,0,1,.252-.934,43.613,43.613,0,0,1,2.1-4.1,2.694,2.694,0,0,1,1.38-1.345c2.234-.743,2.54-2.148,3.092-4.194l.286-1a4.845,4.845,0,0,0,.258-1.631,3.893,3.893,0,0,0-.285-1.078,6.064,6.064,0,0,0-.47-.982c-.181-.3-.43-.545-.586-.843a5.822,5.822,0,0,1-.44-1.429,4.166,4.166,0,0,1-.073-1.978,1.674,1.674,0,0,1,1.378-1.207.114.114,0,0,0-.008-.227h-.023a2.426,2.426,0,0,0-2.571,2.672c-.056.905.236,1.809.206,2.7a6.222,6.222,0,0,1-1.747,3.475,13.023,13.023,0,0,0-2.851,4.671,27.616,27.616,0,0,0-.661,5.063,28.445,28.445,0,0,1,.19-9.669,33.2,33.2,0,0,0,.445-3.967q.081-.475.149-.953a25.95,25.95,0,0,0,.268-3.8c-.027-.917-.076-2.175-.081-3.089a23.393,23.393,0,0,1,.189-4.107c.1-.679.257-1.35.416-2.017.053-.181.123-.466.189-.639a12.854,12.854,0,0,1,2.4-4.054c1.635-1.057,3.29-2.083,4.931-3.124,1.226-.768,1.193-2.4,1.217-3.672.036-.651.153-1.5.149-2.152.006-.324,0-.65-.026-.974-.016-.308-.078-.623-.063-.929A1.134,1.134,0,0,1,553.6.36a.18.18,0,0,0-.011-.36m-4.935,31.143c.02.041.041.081.063.12a3.835,3.835,0,0,1-.284,1.767,6.868,6.868,0,0,1-.447.753c-.139.215-.287.427-.437.636A6.763,6.763,0,0,0,548.5,31.1c-.011-.149-.023-.3-.037-.447a3.228,3.228,0,0,0,.193.488m-6.248,13.32c-.018.229-.029.458-.031.688q-.026-.121-.049-.242.042-.222.08-.446M529.378,14.627a6.768,6.768,0,0,1,.981-2.187,2.577,2.577,0,0,0,.072,1.744,7.018,7.018,0,0,0,1.011,1.557c1.172,1.411,2.462,2.716,3.62,4.135a18.728,18.728,0,0,1,2,2.882c-.927-.74-1.863-1.468-2.791-2.207-.978-.779-1.955-1.561-2.9-2.379a11.046,11.046,0,0,1-.9-.846,3.747,3.747,0,0,1-1.086-2.7m5.769,5.181c-1.223-1.561-2.618-2.98-3.811-4.563-.112-.151-.215-.311-.325-.463l-.176-.287a2.549,2.549,0,0,1-.14-2.516,10.554,10.554,0,0,1,1.881-1.819,2.745,2.745,0,0,0-.437,2.824,9.623,9.623,0,0,0,.428.88c1.359,2.661,2.62,5.37,4.023,8.008a21.512,21.512,0,0,0-1.444-2.064m-5.871-4.428a3.364,3.364,0,0,0,.313,1.035,5.981,5.981,0,0,0,1.631,1.929c2.236,1.885,4.62,3.585,6.9,5.412q.411.328.821.66c-.569-.3-1.19-.609-1.742-.93a32.11,32.11,0,0,1-4.516-3.3l.332.24c1.128.823,2.45,1.717,3.621,2.484.011.008.023-.011.012-.018-1.447-1.042-3-2.167-4.388-3.286-.64-.517-1.294-1.014-1.932-1.534-.077-.1-.151-.2-.221-.308a4.448,4.448,0,0,1-.834-2.387M541.7,37.239c-.006.055-.012.11-.018.166-.254-.436-.518-.864-.77-1.3a33.676,33.676,0,0,1-2.237-4.381l-.02-.049c.216.35.451.687.694,1.021.331.477,1,1.431,1.344,1.9.008.012.025,0,.018-.012-.3-.5-.909-1.495-1.217-1.987a12.8,12.8,0,0,0-1.119-1.64,9.985,9.985,0,0,1-.482-1.778,16.005,16.005,0,0,0,1.1,1.867c.438.694.874,1.389,1.28,2.1.007.012.025,0,.019-.01-.347-.745-.748-1.465-1.15-2.182a12.042,12.042,0,0,0-1.275-1.963c-.006-.04-.013-.079-.018-.119-.055-.44-.076-.89-.119-1.337.283.589.6,1.16.931,1.727.458.829.924,1.656,1.339,2.507.006.013.025,0,.02-.009-.36-.879-.781-1.731-1.205-2.58a17.175,17.175,0,0,0-1.131-2.04c-.013-.09-.027-.18-.044-.269a10.71,10.71,0,0,0-.29-1.141l.143.223c.164.254.373.558.543.808a10.548,10.548,0,0,1,1.3,2.608.011.011,0,0,0,.021-.005,9.147,9.147,0,0,0-.994-2.418,9.143,9.143,0,0,0-1.192-1.744,10.046,10.046,0,0,0-.71-1.511c.152.092.306.183.462.27.792.459,1.632.857,2.408,1.32a11.5,11.5,0,0,1,1.758,2.666,14.61,14.61,0,0,1,1.24,3.8.01.01,0,0,0,.013.008c-.019.3-.044.59-.072.881-.164,1.526-.422,3.063-.569,4.6m.644-5.539c-.015-.151-.032-.3-.05-.454A9.43,9.43,0,0,0,542,29.754a10.765,10.765,0,0,0-2.2-4.171c.2.134.4.275.581.425a9.318,9.318,0,0,1,.926,1.19c.1.137.224.365.312.509.1.174.188.352.282.528a.011.011,0,0,0,.019-.01,11.025,11.025,0,0,0-.728-1.311q-.171-.257-.359-.5a4.685,4.685,0,0,1,1.138,1.765,8.878,8.878,0,0,1,.369,3.521m1.377-15.734-.005.016a30.922,30.922,0,0,0-1.649,4.32,27.843,27.843,0,0,0-1.132,5.04c0,.013.019.016.021,0,.383-1.466.892-3.551,1.278-4.995a34.412,34.412,0,0,1,1.392-4.058,15.582,15.582,0,0,0-.284,2.087c-.042.452-.335,2.921-.393,3.427-.066.574-.112,1.155-.141,1.736a.01.01,0,0,0-.01.009,18.459,18.459,0,0,0-.156,2.143,8.508,8.508,0,0,0,.1,1.97q-.01.545-.034,1.092a7.311,7.311,0,0,0-.213-.767,6.445,6.445,0,0,0-3.182-3.369c-.711-.611-1.437-1.2-2.17-1.789a3.36,3.36,0,0,1-.031-1.821,8.651,8.651,0,0,1,3.36-4.44c1.661-1.3,3.4-2.508,5.166-3.667a8.522,8.522,0,0,0-1.92,3.064M552.15,5.312c-.052.628-.005,1.272-.115,1.89a2.421,2.421,0,0,1-.734,1.533c-.426.3-1.147.737-1.587,1.022-2.525,1.6-5.035,3.235-7.437,5.018q.9-.753,1.8-1.494c.466-.382.961-.73,1.4-1.134,1.332-1.2,2.615-2.493,3.839-3.8.009-.009-.006-.025-.015-.016-.9.795-1.773,1.619-2.656,2.431-.464.423-1.5,1.437-1.984,1.813-1.292,1.069-2.569,2.157-3.8,3.291a12.5,12.5,0,0,0-3.157,3.323,4.53,4.53,0,0,0-.67,3.468q-.079-.152-.162-.3c-1.173-2.87-2.715-5.767-4.179-8.557a9.344,9.344,0,0,1-.437-.86A2.709,2.709,0,0,1,532.788,10a19.18,19.18,0,0,1,1.653-1.086c-.064.058-.128.118-.19.179a3.053,3.053,0,0,0-1.022,2.433A10.8,10.8,0,0,0,533.9,14.1c.606,1.661,1.349,3.255,1.834,4.955.145.482.374,1.211.5,1.685l0,.008c0,.012.022.007.02,0-.109-.487-.327-1.224-.457-1.707-.437-1.709-1.161-3.334-1.732-4.995a9.3,9.3,0,0,1-.613-2.961A3.812,3.812,0,0,1,534.987,8.6c.791-.444,1.6-.851,2.375-1.24a4.772,4.772,0,0,0-.637.781,5.6,5.6,0,0,0-.893,2.849,10.383,10.383,0,0,0,.419,2.956c.318,1.4.7,2.948.95,4.353a.011.011,0,0,0,.022,0c-.07-.491-.161-.978-.25-1.466-.244-1.4-.626-2.967-.867-4.367a6.432,6.432,0,0,1,1.441-5.2c.359-.179.71-.355,1.049-.529l.13-.066a7.139,7.139,0,0,0-.619.885,5.866,5.866,0,0,0-.878,3.943c.381,1.763.774,3.527,1.083,5.3,0,.014.024.01.022,0q-.289-2.009-.675-4c-.072-.386-.2-.944-.256-1.323a7.516,7.516,0,0,1,1.429-4.854c.51-.261,1.017-.532,1.5-.837a5.6,5.6,0,0,0-.492.606,6.655,6.655,0,0,0-1.182,3.78,5.7,5.7,0,0,0,.01.667c.011.194.027.474.051.663.089.878.186,1.755.312,2.628q.046.328.1.654a4.612,4.612,0,0,0,.146.648.011.011,0,0,0,.013.007.012.012,0,0,0,.006-.017,4.725,4.725,0,0,1-.122-.645c-.145-1.092-.228-2.191-.316-3.288-.027-.315-.036-.668-.043-.984.011-.191.017-.465.033-.653.013-.1.049-.385.063-.486A7.852,7.852,0,0,1,540.57,5.63l.051-.033a16.1,16.1,0,0,1,2.012-1.122c.337-.153.683-.3,1.034-.429a4.833,4.833,0,0,0-.807.748,6.63,6.63,0,0,0-1.474,3.457,6.6,6.6,0,0,0-.079.754,12.9,12.9,0,0,0-.011,1.511c.046,1.081.12,2.677.153,3.754,0,.207.02.539,0,.742a.009.009,0,0,0,0,.011c.015.021.026-.009.024,0a.163.163,0,0,0,0-.019l0-.024c.006-.064.01-.272.01-.329.008-.678-.012-1.944-.02-2.631a29.5,29.5,0,0,1,.011-3,7.389,7.389,0,0,1,2.378-5.043,8.385,8.385,0,0,1,3.021-.552,7.065,7.065,0,0,0-.832.608,4.736,4.736,0,0,0-1.852,3.08,21.542,21.542,0,0,0,.163,4.833c-.038-.791-.109-1.614-.105-2.417a16.891,16.891,0,0,1,.115-2.4,3.178,3.178,0,0,1,.345-1.115,8.682,8.682,0,0,1,2.238-2.592l.1,0c.776.062,1.529.344,2.307.422a4.311,4.311,0,0,0-.677.467,8.079,8.079,0,0,0-1.933,2.438l-.248.457-.335.7c-.065.156-.23.557-.3.719-.109.277-.241.692-.343.977l-.287.994a.011.011,0,0,0,.007.013.011.011,0,0,0,.014-.007l.328-.979c.113-.277.262-.687.382-.957.07-.156.248-.553.317-.7l.353-.685a13.867,13.867,0,0,1,1.453-2.1,8.41,8.41,0,0,1,1.355-1.325,3.524,3.524,0,0,0,.48.008,4.006,4.006,0,0,0,.582-.11,2.355,2.355,0,0,1,1.074-.014c.455.017.642-.733.709-1.242a17.956,17.956,0,0,1-.148,2.809m-10.686,9.7h0m-.007,0h0"
            transform="translate(-469.864)" fill="#3f132c" />
        <path id="Path_12699" data-name="Path 12699"
            d="M690.065,52.411c.01-.008,0-.024-.012-.018a3.92,3.92,0,0,0-.834.619,8.061,8.061,0,0,0-1.572,2.261c-.081.176-.215.449-.282.628-.129.306-.249.655-.352.968a.011.011,0,0,0,.021.007c.09-.21.173-.422.266-.631a11.936,11.936,0,0,1,1-1.782,15.5,15.5,0,0,1,1.77-2.053"
            transform="translate(-610.413 -46.55)" fill="#3f132c" />
        <path id="Path_12700" data-name="Path 12700"
            d="M697.081,62.456a2.387,2.387,0,0,0-.862.345,4.139,4.139,0,0,0-1,.964,4.518,4.518,0,0,0-.678,1.208.011.011,0,0,0,.015,0l.114-.2a5.312,5.312,0,0,1,.971-1.237,11.231,11.231,0,0,1,1.445-1.058.011.011,0,0,0-.007-.021"
            transform="translate(-617.102 -55.492)" fill="#3f132c" />
        <path id="Path_12701" data-name="Path 12701"
            d="M684.447,296.314c.527-.5,1.084-.938,1.643-1.408a2.127,2.127,0,0,0,.661-2.032c0-.013-.024-.008-.021,0a2.535,2.535,0,0,1-.37,1.33,4.515,4.515,0,0,1-.945,1.029c-.357.323-.708.654-1.044,1a8.161,8.161,0,0,0-.932,1.116.011.011,0,0,0,.015,0,10.492,10.492,0,0,1,.993-1.037"
            transform="translate(-607.237 -260.212)" fill="#3f132c" />
        <path id="Path_12702" data-name="Path 12702"
            d="M670.679,312.4a11.373,11.373,0,0,1,2.338-3.5c.974-.978,2.431-1.724,2.763-3.177,0-.013-.017-.018-.021-.006a2.254,2.254,0,0,1-.238.469,8.833,8.833,0,0,1-1.855,1.849,11.093,11.093,0,0,0-1.47,1.557,12.033,12.033,0,0,0-1.537,2.8c-.006.013.015.021.02.009"
            transform="translate(-595.881 -271.627)" fill="#3f132c" />
        <path id="Path_12703" data-name="Path 12703"
            d="M701.422,326.155a4.165,4.165,0,0,0-.647.79c-.2.269-.43.537-.656.788-.009.01,0,.024.015.016.138-.1.27-.215.4-.329a2.425,2.425,0,0,0,.907-1.256.012.012,0,0,0-.02-.009"
            transform="translate(-622.055 -289.787)" fill="#3f132c" />
        <path id="Path_12704" data-name="Path 12704"
            d="M663.581,343.3a9.467,9.467,0,0,1,2.891-3.938,8.562,8.562,0,0,0,.843-.548,4.666,4.666,0,0,0,1.35-1.486c.006-.011-.012-.022-.018-.011a3.386,3.386,0,0,1-.325.375,10.12,10.12,0,0,1-1.965,1.487,9.363,9.363,0,0,0-2.8,4.113c-.006.013.016.021.02.008"
            transform="translate(-589.575 -299.703)" fill="#3f132c" />
        <path id="Path_12705" data-name="Path 12705"
            d="M653.937,389.587a.011.011,0,0,0-.02-.008,3.79,3.79,0,0,0-.548,1.383,7.568,7.568,0,0,0-.239,1.47.011.011,0,0,0,.022,0,10.006,10.006,0,0,1,.385-1.423,6.356,6.356,0,0,0,.4-1.423"
            transform="translate(-580.307 -346.138)" fill="#3f132c" />
        <path id="Path_12706" data-name="Path 12706"
            d="M654.319,400.5a8.821,8.821,0,0,1,.324-1.091,4.21,4.21,0,0,0,.333-1.09.012.012,0,0,0-.02-.01,2.165,2.165,0,0,0-.48,1.048,4.861,4.861,0,0,0-.17,1.151.011.011,0,0,0,.013-.008"
            transform="translate(-581.353 -353.9)" fill="#3f132c" />
        <path id="Path_12707" data-name="Path 12707"
            d="M641.952,164.041c.293-1.411.546-2.822.833-4.233a34.728,34.728,0,0,1,1.154-4.154c.005-.013-.016-.02-.02-.008a31.042,31.042,0,0,0-1.3,4.123,20.422,20.422,0,0,0-.685,4.27.011.011,0,0,0,.022,0"
            transform="translate(-570.357 -138.286)" fill="#3f132c" />
        <path id="Path_12708" data-name="Path 12708"
            d="M646.467,178.076a15.11,15.11,0,0,0-.8,3.107,13.853,13.853,0,0,0-.243,3.2.011.011,0,0,0,.022,0c.18-1.055.277-2.113.394-3.174a16.621,16.621,0,0,1,.644-3.124c0-.013-.016-.02-.02-.008"
            transform="translate(-573.451 -158.215)" fill="#3f132c" />
        <path id="Path_12709" data-name="Path 12709"
            d="M650.019,191.589a27.639,27.639,0,0,0-.427,2.843,9.95,9.95,0,0,0,.031,2.875.011.011,0,0,0,.022,0c.064-.957.091-1.9.121-2.86.052-.954.145-1.905.274-2.852a.011.011,0,0,0-.021,0"
            transform="translate(-577.085 -170.22)" fill="#3f132c" />
        <path id="Path_12710" data-name="Path 12710"
            d="M629.391,137.639c0,.014.021.014.022,0,.073-.458.178-.91.29-1.359a38.459,38.459,0,0,1,1.255-3.969,39.416,39.416,0,0,1,1.724-3.8c.208-.415.47-.828.657-1.241a.011.011,0,0,0-.015,0c-.233.4-.47.8-.7,1.206a36.008,36.008,0,0,0-1.828,3.767,16.393,16.393,0,0,0-1.4,5.392"
            transform="translate(-559.215 -113.079)" fill="#3f132c" />
        <path id="Path_12711" data-name="Path 12711"
            d="M626.042,155.948c0,.013.02.015.022,0,.32-1.2.709-2.379,1.107-3.558.41-1.157.911-2.333,1.42-3.454.006-.013-.014-.021-.02-.01a36.817,36.817,0,0,0-1.564,3.4,11.944,11.944,0,0,0-.965,3.617"
            transform="translate(-556.24 -132.319)" fill="#3f132c" />
        <path id="Path_12712" data-name="Path 12712"
            d="M621.469,154.551c.126-.216.25-.437.388-.644a.011.011,0,0,0,0-.016.011.011,0,0,0-.015,0c-.153.2-.288.414-.427.624-.3.455-.722,1.133-1.005,1.594a5.45,5.45,0,0,0-1.056,3.206c0,.013.023.011.022,0a6.023,6.023,0,0,1,.394-1.43,14.294,14.294,0,0,1,.6-1.363c.324-.609.762-1.366,1.1-1.97"
            transform="translate(-550.284 -136.731)" fill="#3f132c" />
        <path id="Path_12713" data-name="Path 12713"
            d="M612.068,144.736a3.759,3.759,0,0,0-.664.72,3.245,3.245,0,0,0-.247,2.839c0,.013.025.006.021-.006a3.6,3.6,0,0,1,1.012-3.427,15.182,15.182,0,0,0,2.308-3.08,18.7,18.7,0,0,1-2.43,2.955"
            transform="translate(-542.825 -125.973)" fill="#3f132c" />
        <path id="Path_12714" data-name="Path 12714"
            d="M607.392,166.334l.142-.13a.011.011,0,0,0,0-.015,3.024,3.024,0,0,0-1.506,2.608.011.011,0,0,0,.022,0,13.39,13.39,0,0,1,.538-1.413,3.723,3.723,0,0,1,.8-1.051"
            transform="translate(-538.446 -147.659)" fill="#3f132c" />
        <path id="Path_12715" data-name="Path 12715"
            d="M935.553,649.117a16.046,16.046,0,0,0-1.4,1.687c.71.586,1.35,1.154,2.078,1.847a9.438,9.438,0,0,0,1.35-1.634,16.751,16.751,0,0,0-2.024-1.9"
            transform="translate(-829.995 -576.742)" fill="#3f132c" />
        <path id="Path_12716" data-name="Path 12716"
            d="M966.292,647.046a16.036,16.036,0,0,0-1.4,1.687c.71.586,1.35,1.154,2.078,1.847a9.427,9.427,0,0,0,1.35-1.634,16.727,16.727,0,0,0-2.024-1.9"
            transform="translate(-857.306 -574.902)" fill="#3f132c" />
        <path id="Path_12717" data-name="Path 12717"
            d="M634.009,372.771v11.871s-.219,1.45,1.75,2.3,3.747,1.258,3.063,4.021-4.458,4.486-6.647,3.692.027-4.6-1.969-4.6-14.075,7.33-22.4,8.479-13.662-.328-13.991-6.4,0-17.642,0-17.642l1.58-1.723s-.718,18.381-.6,19.817.874,4.814,10.626,4.062,22.205-8.739,25.077-8.719-.287,3.611,1.969,4.411,5.621-1.292,5.7-1.867-2.974-1.026-4.185-2.585S633,368.367,633,368.367l1.313-2.731Z"
            transform="translate(-527.475 -324.869)" fill="#3f132c" />
        <path id="Path_12718" data-name="Path 12718"
            d="M829.033,473.164s-.408,1.047,0,1.491.817.994,0,2.059-2.077,1.616-2.823.639c0,0-1.314,1.545-2.255.923s-.355-2.841.923-4.012c0,0-2.168,3.934,1.147,2.433a.132.132,0,0,0,.078-.119,4.851,4.851,0,0,1,.4-2.03s-.091,2.392,1.791,1.73a.072.072,0,0,0,.043-.091,2.613,2.613,0,0,1-.063-1.851,5.78,5.78,0,0,1,.763-1.172"
            transform="translate(-731.675 -420.408)" fill="#3f132c" />
        <path id="Path_12719" data-name="Path 12719"
            d="M408.461,494.557a1.169,1.169,0,1,1,1.155,1.182,1.162,1.162,0,0,1-1.155-1.182"
            transform="translate(-362.919 -438.389)" fill="#3f132c" />
        <path id="Path_12720" data-name="Path 12720"
            d="M477.079,499.393c-4.709.723-9.192,6.381-15.091,5.86-5.972-.527-5.328-5.713-5.328-5.713a5.685,5.685,0,0,1,3.876-5.318,5.627,5.627,0,0,0,2.371-1.381v9.241a1.226,1.226,0,0,0,1.225,1.226h2.119l-.516-.443a2.042,2.042,0,0,1-.713-1.55v-8.274a4.192,4.192,0,0,0-4.246-3.927c-3.975,0-5.348,2.522-5.348,2.522l1.437,1.868s.782-4.071,3.7-4.15,3.145,3.129.75,4.15-6.944,1.692-6.944,6.433,4.8,7.4,10.153,5.843c3.632-1.058,13.262-8.236,21.447-2.4,0,0-3.256-4.85-8.894-3.985"
            transform="translate(-403.712 -434.579)" fill="#3f132c" />
        <path id="Path_12721" data-name="Path 12721"
            d="M47.768,413.056V404.57a1.106,1.106,0,0,0-1.105-1.106H44.547l.357.306a2.144,2.144,0,0,1,.739,1.433c-.228.2-9.851,8.419-17.5,8.914-.678.031-.993-.236-.993-.581q0-1.239,1.875-4.241a14.656,14.656,0,0,1,3.014-3.836,112.35,112.35,0,0,0,9.66-8.007q7.025-6.581,7.025-9.576,0-1.164-1.093-1.164-2.352,0-9.243,6.9a87.687,87.687,0,0,0-9.419,11.183c-.319.469-.8,1.218-1.317,2.159-4.425,2.432-10.974,5.44-17.727,6.436-2.584.27-6.775-.243-8.608-4.137L0,412.306s1.732,2.414,6.049,2.635h0a8.093,8.093,0,0,0,1.156.012,19.625,19.625,0,0,0,4.411-.673A58.9,58.9,0,0,0,26.968,408.3c-.257.544-.474,1.034-.653,1.479-.059.148-.117.3-.173.447a7.7,7.7,0,0,0-.581,2.746,1.77,1.77,0,0,0,1.963,2c.729.028,7.939-.222,18.131-9.287v7.379a2.145,2.145,0,0,1-.749,1.629l-.357.306h4.327l-.357-.306a2.146,2.146,0,0,1-.749-1.629M40.134,394.7q6.408-7.253,7.334-7.253.427,0,.427.38,0,3.677-14.676,15.718l0-.005s-.248.176-.7.477a109.023,109.023,0,0,1,7.615-9.316"
            transform="translate(0 -343.595)" fill="#3f132c" />
    </g>
</svg>
  