<svg id="Group_14849" data-name="Group 14849" xmlns="http://www.w3.org/2000/svg" xmlns:xlink="http://www.w3.org/1999/xlink" width="117.745" height="80.162" viewBox="0 0 117.745 80.162">
  <defs>
    <clipPath id="clip-path">
      <rect id="Rectangle_982" data-name="Rectangle 982" width="117.745" height="80.162" fill="none"/>
    </clipPath>
  </defs>
  <g id="Group_14816" data-name="Group 14816" clip-path="url(#clip-path)">
    <path id="Path_12698" data-name="Path 12698" d="M554.979,0h-.023a1.475,1.475,0,0,0-.608.178,2.347,2.347,0,0,0-1.02,2.109,3.412,3.412,0,0,1-.187,1.065.6.6,0,0,1-.24.327,2.752,2.752,0,0,0-1.224.045,4.278,4.278,0,0,1-.583.125,22.142,22.142,0,0,1-3-.415,10.629,10.629,0,0,0-4.759,1.136c-1.494.672-2.792,1.681-4.286,2.357-3.934,1.932-9.164,3.972-10.167,8.76a3.1,3.1,0,0,0-.029.986,6.546,6.546,0,0,0,2.63,4.2c.324.261.642.5.958.76a46.961,46.961,0,0,0,4.164,3.208c.176.548.35,1.091.513,1.637.2.665.378,1.334.566,2a37.234,37.234,0,0,1,.875,4.123,12.808,12.808,0,0,0,.787,2.548,14.953,14.953,0,0,0,2.209,3.632c.261.327.537.641.825.945-.478,4.746.114,9.8,2.915,13.782a18.738,18.738,0,0,0,3.287,3.631.028.028,0,0,0,.037-.042,17.349,17.349,0,0,1-5.335-8.787l.049-.337a15.43,15.43,0,0,1,.644-2.708c.274-.746.555-1.544.846-2.284a.012.012,0,0,0-.02-.012,6.048,6.048,0,0,0-.683,1.234,9.06,9.06,0,0,0-.428,1.343,12.926,12.926,0,0,0-.42,2.718q-.05-.2-.1-.407c.106-.66.222-1.314.354-1.965a24.844,24.844,0,0,1,.754-3.037,17.245,17.245,0,0,1,.775-1.94c.055-.125.166-.348.234-.468l.247-.462a.012.012,0,1,0-.02-.012c-.091.153-.313.527-.4.678s-.286.552-.363.7a17.76,17.76,0,0,0-.788,1.951c-.192.571-.362,1.152-.5,1.742a19.453,19.453,0,0,1,.78-3.436,9.671,9.671,0,0,1,1.141-2.162c1.053-1.588,2.557-2.935,3.225-4.768.623-1.646-.106-2.73-.067-4.31a2.656,2.656,0,0,1,.879-2.132,1.856,1.856,0,0,0-.421.745,4.711,4.711,0,0,0-.1,1.7l.045.835c.024.486.073,1.193.068,1.671,0,.015.022.015.023,0,.02-.281.019-.559.023-.838v-.837c0-.478-.033-1.195-.006-1.665a2.347,2.347,0,0,1,.684-1.6,2.039,2.039,0,0,0-.407.711,4.4,4.4,0,0,0-.054,2.153h0c0,.715.121,1.446.072,2.161a7.949,7.949,0,0,1-.853,2.861,12.307,12.307,0,0,1-1.142,1.833c-.259.332-.55.7-.793,1.04A12.419,12.419,0,0,0,544.9,42.06a.012.012,0,0,0,.022.008,9.306,9.306,0,0,1,.767-1.557,16.259,16.259,0,0,1,.975-1.436c.337-.461.74-.908,1.075-1.372q.094-.132.186-.266c.444-.542.882-1.093,1.29-1.658a8.258,8.258,0,0,0,.525-.8,3.155,3.155,0,0,0,.286-1.674c.123.172.254.337.359.515a5.924,5.924,0,0,1,.434.958,3.618,3.618,0,0,1,.247.989,4.661,4.661,0,0,1-.282,1.52c-.1.35-.207.7-.308,1.06a8.914,8.914,0,0,1-1.132,2.959,3.527,3.527,0,0,1-1.2.924c-.134.072-.333.148-.477.21a1.694,1.694,0,0,0-.52.242,4.806,4.806,0,0,0-1.525,2.18c-.434.934-.945,1.827-1.324,2.793a7.545,7.545,0,0,0-.51,2.006.028.028,0,0,0,.055.008,8.125,8.125,0,0,1,.266-.986,46.046,46.046,0,0,1,2.22-4.326,2.845,2.845,0,0,1,1.457-1.42c2.359-.784,2.682-2.268,3.266-4.429l.3-1.059a5.116,5.116,0,0,0,.273-1.723,4.11,4.11,0,0,0-.3-1.139,6.4,6.4,0,0,0-.5-1.037c-.191-.315-.453-.575-.619-.89a6.152,6.152,0,0,1-.464-1.509,4.4,4.4,0,0,1-.077-2.088,1.768,1.768,0,0,1,1.456-1.274.121.121,0,0,0-.009-.24h-.024a2.562,2.562,0,0,0-2.715,2.822c-.059.956.249,1.91.217,2.852a6.571,6.571,0,0,1-1.845,3.669,13.753,13.753,0,0,0-3.011,4.933,29.167,29.167,0,0,0-.7,5.346,30.039,30.039,0,0,1,.2-10.211,35.064,35.064,0,0,0,.47-4.189q.086-.5.157-1.006a27.385,27.385,0,0,0,.283-4.01c-.029-.969-.08-2.3-.086-3.262a24.705,24.705,0,0,1,.2-4.337c.11-.717.271-1.425.44-2.13.056-.191.13-.492.2-.674a13.572,13.572,0,0,1,2.537-4.282c1.727-1.116,3.474-2.2,5.207-3.3,1.3-.811,1.26-2.533,1.285-3.878.038-.688.161-1.588.157-2.273.007-.343,0-.686-.028-1.029-.017-.325-.082-.658-.067-.981a1.2,1.2,0,0,1,1-1.232.19.19,0,0,0-.011-.38m-5.212,32.888c.021.043.043.085.066.126a4.048,4.048,0,0,1-.3,1.866,7.257,7.257,0,0,1-.472.8c-.147.227-.3.45-.462.672a7.143,7.143,0,0,0,1-3.5c-.011-.157-.025-.315-.039-.473a3.4,3.4,0,0,0,.2.516m-6.6,14.066c-.019.241-.031.484-.032.726q-.027-.128-.052-.256.044-.235.085-.471M529.408,15.446a7.146,7.146,0,0,1,1.036-2.31,2.722,2.722,0,0,0,.076,1.842,7.415,7.415,0,0,0,1.067,1.644c1.237,1.49,2.6,2.868,3.823,4.367a19.79,19.79,0,0,1,2.11,3.044c-.979-.781-1.968-1.551-2.947-2.33-1.033-.823-2.065-1.648-3.063-2.512a11.657,11.657,0,0,1-.955-.893,3.956,3.956,0,0,1-1.147-2.852m6.092,5.471c-1.292-1.649-2.765-3.147-4.024-4.819-.118-.159-.227-.328-.344-.489l-.186-.3a2.692,2.692,0,0,1-.148-2.657,11.146,11.146,0,0,1,1.987-1.921,2.9,2.9,0,0,0-.461,2.982,10.177,10.177,0,0,0,.452.929c1.436,2.81,2.767,5.671,4.249,8.457a22.731,22.731,0,0,0-1.525-2.18m-6.2-4.676a3.551,3.551,0,0,0,.331,1.093,6.316,6.316,0,0,0,1.723,2.037c2.361,1.991,4.879,3.786,7.288,5.715q.434.347.867.7c-.6-.317-1.257-.643-1.84-.982A33.914,33.914,0,0,1,532.9,21.32l.351.253c1.191.869,2.587,1.813,3.824,2.623.012.009.025-.011.013-.019-1.528-1.1-3.171-2.288-4.634-3.47-.676-.546-1.367-1.071-2.04-1.62-.081-.105-.16-.213-.233-.325a4.7,4.7,0,0,1-.88-2.52m13.124,23.084c-.007.058-.012.117-.019.175-.269-.46-.547-.912-.813-1.373A35.565,35.565,0,0,1,539.23,33.5l-.021-.051c.228.369.476.726.732,1.078.349.5,1.061,1.511,1.419,2.009.008.012.027,0,.019-.013-.315-.525-.96-1.578-1.285-2.1a13.52,13.52,0,0,0-1.181-1.732,10.543,10.543,0,0,1-.509-1.878,16.918,16.918,0,0,0,1.159,1.972c.463.733.923,1.467,1.352,2.22.007.013.026,0,.021-.01-.367-.787-.79-1.547-1.214-2.3a12.713,12.713,0,0,0-1.346-2.073c-.006-.042-.014-.084-.019-.126-.058-.465-.08-.94-.126-1.412.3.623.636,1.225.983,1.824.484.876.975,1.748,1.414,2.648.006.014.027,0,.021-.009-.38-.928-.825-1.828-1.273-2.725a18.14,18.14,0,0,0-1.195-2.154c-.013-.1-.028-.19-.046-.284a11.305,11.305,0,0,0-.306-1.2l.151.236c.173.268.394.59.574.854a11.14,11.14,0,0,1,1.371,2.754.012.012,0,0,0,.022-.006,9.659,9.659,0,0,0-1.05-2.554,9.657,9.657,0,0,0-1.259-1.842,10.613,10.613,0,0,0-.75-1.6c.161.1.323.193.488.285.836.485,1.724.9,2.543,1.394a12.147,12.147,0,0,1,1.857,2.816,15.426,15.426,0,0,1,1.31,4.012.011.011,0,0,0,.014.009c-.02.312-.046.623-.076.931-.174,1.612-.446,3.234-.6,4.855m.68-5.849c-.016-.16-.034-.319-.053-.479a9.951,9.951,0,0,0-.308-1.575,11.366,11.366,0,0,0-2.323-4.4c.212.142.417.29.614.449a9.845,9.845,0,0,1,.978,1.256c.1.145.237.385.33.538.1.183.2.372.3.558a.011.011,0,0,0,.02-.011,11.652,11.652,0,0,0-.769-1.384q-.181-.271-.379-.53a4.947,4.947,0,0,1,1.2,1.864,9.376,9.376,0,0,1,.39,3.718m1.454-16.616-.005.017a32.642,32.642,0,0,0-1.742,4.562,29.419,29.419,0,0,0-1.2,5.323c0,.014.02.017.023,0,.4-1.548.942-3.75,1.35-5.275a36.325,36.325,0,0,1,1.47-4.285,16.467,16.467,0,0,0-.3,2.2c-.045.477-.354,3.084-.416,3.619-.069.607-.118,1.22-.148,1.833a.011.011,0,0,0-.011.009,19.5,19.5,0,0,0-.165,2.263,8.985,8.985,0,0,0,.109,2.081q-.011.575-.036,1.153a7.716,7.716,0,0,0-.225-.81A6.806,6.806,0,0,0,539.908,26c-.751-.645-1.518-1.272-2.291-1.89a3.549,3.549,0,0,1-.033-1.923,9.136,9.136,0,0,1,3.548-4.689c1.754-1.378,3.589-2.648,5.455-3.873a9,9,0,0,0-2.028,3.236m8.9-11.25c-.055.663-.006,1.343-.122,2a2.558,2.558,0,0,1-.775,1.618c-.45.318-1.211.778-1.676,1.079-2.666,1.692-5.317,3.416-7.854,5.3q.947-.8,1.9-1.578c.492-.4,1.015-.771,1.482-1.2,1.407-1.269,2.762-2.632,4.054-4.017.01-.01-.006-.026-.016-.016-.952.839-1.873,1.709-2.8,2.568-.491.447-1.585,1.518-2.1,1.915-1.365,1.128-2.713,2.278-4.018,3.475a13.2,13.2,0,0,0-3.334,3.51,4.784,4.784,0,0,0-.708,3.663c-.056-.107-.113-.213-.171-.318-1.239-3.031-2.867-6.09-4.413-9.036a9.877,9.877,0,0,1-.462-.908,2.861,2.861,0,0,1,.562-3.1,20.241,20.241,0,0,1,1.746-1.147c-.068.061-.135.124-.2.189a3.225,3.225,0,0,0-1.079,2.569,11.407,11.407,0,0,0,.7,2.723c.64,1.754,1.425,3.438,1.937,5.233.153.509.395,1.279.526,1.78l0,.008c0,.013.024.008.021,0-.115-.515-.345-1.292-.482-1.8-.462-1.8-1.226-3.521-1.829-5.275a9.823,9.823,0,0,1-.648-3.127,4.026,4.026,0,0,1,1.626-2.623c.836-.469,1.688-.9,2.508-1.31a5.042,5.042,0,0,0-.673.825,5.913,5.913,0,0,0-.943,3.009,10.966,10.966,0,0,0,.442,3.122c.336,1.479.734,3.113,1,4.6a.011.011,0,0,0,.023,0c-.074-.519-.169-1.033-.264-1.548-.258-1.481-.661-3.134-.916-4.611a6.793,6.793,0,0,1,1.522-5.488c.379-.189.75-.375,1.108-.559l.137-.07a7.535,7.535,0,0,0-.654.934,6.194,6.194,0,0,0-.927,4.164c.4,1.861.818,3.725,1.143,5.6,0,.015.025.01.023,0q-.305-2.122-.713-4.228c-.076-.408-.208-1-.271-1.4a7.936,7.936,0,0,1,1.509-5.126c.538-.275,1.074-.562,1.589-.884a5.905,5.905,0,0,0-.52.64,7.028,7.028,0,0,0-1.248,3.992,6.034,6.034,0,0,0,.011.7c.012.2.028.5.054.7.094.927.2,1.853.33,2.775q.049.346.108.691a4.865,4.865,0,0,0,.154.685.011.011,0,0,0,.014.007.012.012,0,0,0,.006-.018,4.986,4.986,0,0,1-.129-.681c-.153-1.153-.241-2.313-.334-3.473-.029-.333-.039-.706-.045-1.039.011-.2.018-.491.035-.69.014-.111.052-.407.066-.513a8.29,8.29,0,0,1,1.748-3.942l.054-.035a17,17,0,0,1,2.125-1.184c.356-.161.721-.315,1.092-.454a5.1,5.1,0,0,0-.852.79,7,7,0,0,0-1.556,3.65,6.984,6.984,0,0,0-.084.8,13.608,13.608,0,0,0-.012,1.6c.049,1.141.126,2.827.162,3.964,0,.219.021.569,0,.783a.009.009,0,0,0,0,.011c.016.022.028-.009.025,0a.182.182,0,0,0,0-.02l0-.025c.006-.068.01-.287.011-.348.009-.716-.012-2.052-.021-2.779a31.17,31.17,0,0,1,.012-3.163A7.8,7.8,0,0,1,544.7,4.2a8.855,8.855,0,0,1,3.19-.583,7.458,7.458,0,0,0-.879.642,5,5,0,0,0-1.956,3.253,22.745,22.745,0,0,0,.172,5.1c-.04-.835-.115-1.7-.111-2.553a17.811,17.811,0,0,1,.122-2.53,3.354,3.354,0,0,1,.364-1.177,9.169,9.169,0,0,1,2.363-2.737l.11,0c.82.066,1.615.363,2.436.446a4.545,4.545,0,0,0-.715.493,8.531,8.531,0,0,0-2.042,2.575l-.262.482-.354.743c-.068.164-.243.588-.313.759-.115.293-.254.731-.362,1.032l-.3,1.05a.011.011,0,0,0,.007.014.011.011,0,0,0,.015-.008l.346-1.034c.119-.292.276-.726.4-1.011.074-.165.262-.584.334-.743l.373-.724a14.647,14.647,0,0,1,1.534-2.221,8.882,8.882,0,0,1,1.431-1.4,3.722,3.722,0,0,0,.506.008,4.231,4.231,0,0,0,.615-.116,2.487,2.487,0,0,1,1.135-.015c.481.018.678-.774.749-1.311a18.955,18.955,0,0,1-.156,2.967M542.172,15.85h0m-.008,0h0" transform="translate(-466.56)" fill="#ebe2db"/>
    <path id="Path_12699" data-name="Path 12699" d="M690.236,52.412c.011-.008,0-.026-.013-.019a4.142,4.142,0,0,0-.881.653,8.513,8.513,0,0,0-1.66,2.388c-.086.186-.227.474-.3.663-.136.323-.263.692-.372,1.022a.012.012,0,0,0,.022.008c.095-.222.183-.446.281-.666a12.61,12.61,0,0,1,1.051-1.882,16.372,16.372,0,0,1,1.869-2.168" transform="translate(-606.121 -46.223)" fill="#ebe2db"/>
    <path id="Path_12700" data-name="Path 12700" d="M697.223,62.456a2.521,2.521,0,0,0-.91.365,4.371,4.371,0,0,0-1.055,1.018,4.772,4.772,0,0,0-.716,1.276.012.012,0,0,0,.016-.005l.12-.208a5.609,5.609,0,0,1,1.025-1.306,11.864,11.864,0,0,1,1.526-1.117.012.012,0,0,0-.007-.022" transform="translate(-612.763 -55.102)" fill="#ebe2db"/>
    <path id="Path_12701" data-name="Path 12701" d="M684.5,296.507c.556-.529,1.145-.99,1.735-1.487a2.246,2.246,0,0,0,.7-2.146c0-.014-.025-.009-.023,0a2.677,2.677,0,0,1-.391,1.4,4.771,4.771,0,0,1-1,1.087c-.377.341-.747.691-1.1,1.055a8.617,8.617,0,0,0-.984,1.178.012.012,0,0,0,.016,0,11.074,11.074,0,0,1,1.049-1.095" transform="translate(-602.967 -258.382)" fill="#ebe2db"/>
    <path id="Path_12702" data-name="Path 12702" d="M670.68,312.779a12.011,12.011,0,0,1,2.469-3.7c1.029-1.033,2.567-1.821,2.918-3.355,0-.013-.018-.019-.022-.006a2.379,2.379,0,0,1-.251.5,9.326,9.326,0,0,1-1.959,1.953,11.725,11.725,0,0,0-1.552,1.644,12.705,12.705,0,0,0-1.623,2.957c-.006.014.016.022.021.009" transform="translate(-591.691 -269.717)" fill="#ebe2db"/>
    <path id="Path_12703" data-name="Path 12703" d="M701.5,326.155a4.4,4.4,0,0,0-.683.834c-.215.284-.454.567-.693.832-.01.01.005.025.016.017.146-.11.286-.227.424-.347a2.561,2.561,0,0,0,.958-1.326.012.012,0,0,0-.021-.01" transform="translate(-617.681 -287.749)" fill="#ebe2db"/>
    <path id="Path_12704" data-name="Path 12704" d="M663.582,343.636c.661-1.423,1.7-3.322,3.052-4.159a9.041,9.041,0,0,0,.891-.579,4.927,4.927,0,0,0,1.426-1.569c.007-.012-.012-.023-.02-.012a3.569,3.569,0,0,1-.343.4,10.684,10.684,0,0,1-2.075,1.57,9.887,9.887,0,0,0-2.953,4.344c-.006.014.016.022.021.009" transform="translate(-585.429 -297.595)" fill="#ebe2db"/>
    <path id="Path_12705" data-name="Path 12705" d="M653.982,389.587a.012.012,0,0,0-.021-.008,4,4,0,0,0-.579,1.46,7.987,7.987,0,0,0-.252,1.552.012.012,0,0,0,.023,0,10.552,10.552,0,0,1,.406-1.5,6.709,6.709,0,0,0,.424-1.5" transform="translate(-576.226 -343.704)" fill="#ebe2db"/>
    <path id="Path_12706" data-name="Path 12706" d="M654.32,400.628a9.334,9.334,0,0,1,.343-1.152,4.447,4.447,0,0,0,.351-1.151.012.012,0,0,0-.021-.01,2.285,2.285,0,0,0-.507,1.107,5.136,5.136,0,0,0-.18,1.215.011.011,0,0,0,.014-.009" transform="translate(-577.265 -351.412)" fill="#ebe2db"/>
    <path id="Path_12707" data-name="Path 12707" d="M641.954,164.512c.309-1.49.576-2.98.88-4.47a36.688,36.688,0,0,1,1.219-4.387c.005-.014-.017-.021-.021-.008A32.789,32.789,0,0,0,642.654,160a21.573,21.573,0,0,0-.723,4.509.012.012,0,0,0,.023,0" transform="translate(-566.347 -137.314)" fill="#ebe2db"/>
    <path id="Path_12708" data-name="Path 12708" d="M646.526,178.076a15.96,15.96,0,0,0-.841,3.281,14.627,14.627,0,0,0-.257,3.377.012.012,0,0,0,.023,0c.19-1.115.292-2.231.416-3.352a17.56,17.56,0,0,1,.68-3.3c.005-.014-.017-.021-.022-.008" transform="translate(-569.418 -157.103)" fill="#ebe2db"/>
    <path id="Path_12709" data-name="Path 12709" d="M650.048,191.589a29.146,29.146,0,0,0-.451,3,10.5,10.5,0,0,0,.033,3.036.012.012,0,0,0,.023,0c.067-1.011.1-2.01.128-3.021.054-1.007.153-2.012.29-3.012a.012.012,0,0,0-.023,0" transform="translate(-573.028 -169.023)" fill="#ebe2db"/>
    <path id="Path_12710" data-name="Path 12710" d="M629.391,138.22c0,.014.022.015.023,0,.077-.484.188-.961.306-1.435a40.615,40.615,0,0,1,1.326-4.192,41.613,41.613,0,0,1,1.821-4.013c.219-.438.5-.874.694-1.311a.011.011,0,0,0-.016,0c-.246.425-.5.847-.739,1.274a38.051,38.051,0,0,0-1.931,3.978,17.312,17.312,0,0,0-1.483,5.694" transform="translate(-555.283 -112.284)" fill="#ebe2db"/>
    <path id="Path_12711" data-name="Path 12711" d="M626.042,156.342c0,.014.021.016.023,0,.338-1.271.749-2.512,1.169-3.758.433-1.221.962-2.464,1.5-3.647.007-.014-.015-.023-.021-.01a38.866,38.866,0,0,0-1.652,3.593,12.615,12.615,0,0,0-1.019,3.82" transform="translate(-552.328 -131.388)" fill="#ebe2db"/>
    <path id="Path_12712" data-name="Path 12712" d="M621.589,154.588c.133-.229.264-.461.409-.68a.012.012,0,0,0,0-.017.011.011,0,0,0-.016,0c-.161.214-.3.437-.451.659-.314.48-.763,1.2-1.061,1.684a5.755,5.755,0,0,0-1.115,3.385c0,.014.024.011.023,0a6.362,6.362,0,0,1,.416-1.51,15.11,15.11,0,0,1,.634-1.44c.342-.643.8-1.443,1.163-2.081" transform="translate(-546.415 -135.769)" fill="#ebe2db"/>
    <path id="Path_12713" data-name="Path 12713" d="M612.13,144.9a3.971,3.971,0,0,0-.7.76,3.427,3.427,0,0,0-.261,3c0,.014.026.006.022-.007a3.8,3.8,0,0,1,1.069-3.619,16.032,16.032,0,0,0,2.437-3.253,19.746,19.746,0,0,1-2.566,3.12" transform="translate(-539.008 -125.087)" fill="#ebe2db"/>
    <path id="Path_12714" data-name="Path 12714" d="M607.469,166.342l.15-.138a.011.011,0,0,0,0-.015,3.193,3.193,0,0,0-1.591,2.754.012.012,0,0,0,.023,0,14.142,14.142,0,0,1,.568-1.492,3.931,3.931,0,0,1,.847-1.11" transform="translate(-534.66 -146.621)" fill="#ebe2db"/>
    <path id="Path_12715" data-name="Path 12715" d="M935.631,649.117a16.941,16.941,0,0,0-1.481,1.781c.75.619,1.425,1.219,2.194,1.95a9.965,9.965,0,0,0,1.425-1.725,17.682,17.682,0,0,0-2.138-2.007" transform="translate(-824.159 -572.687)" fill="#ebe2db"/>
    <path id="Path_12716" data-name="Path 12716" d="M966.37,647.046a16.933,16.933,0,0,0-1.481,1.781c.75.619,1.425,1.219,2.194,1.95a9.955,9.955,0,0,0,1.425-1.725,17.667,17.667,0,0,0-2.138-2.006" transform="translate(-851.278 -570.86)" fill="#ebe2db"/>
    <path id="Path_12717" data-name="Path 12717" d="M636.27,373.17v12.536s-.231,1.531,1.849,2.426,3.957,1.329,3.235,4.246-4.708,4.737-7.019,3.9.029-4.853-2.08-4.853-14.863,7.741-23.659,8.954-14.428-.346-14.775-6.759,0-18.631,0-18.631l1.668-1.82s-.758,19.411-.628,20.927.923,5.084,11.222,4.289,23.449-9.229,26.482-9.207-.3,3.813,2.08,4.658,5.936-1.365,6.022-1.971-3.141-1.083-4.419-2.73S635.2,368.52,635.2,368.52l1.386-2.884Z" transform="translate(-523.766 -322.584)" fill="#ebe2db"/>
    <path id="Path_12718" data-name="Path 12718" d="M829.344,473.164s-.431,1.106,0,1.575.862,1.05,0,2.175-2.194,1.706-2.981.675c0,0-1.387,1.631-2.381.975s-.375-3,.975-4.237c0,0-2.289,4.154,1.211,2.569a.14.14,0,0,0,.082-.125,5.121,5.121,0,0,1,.417-2.144s-.1,2.526,1.892,1.827a.076.076,0,0,0,.046-.1,2.759,2.759,0,0,1-.067-1.955,6.109,6.109,0,0,1,.806-1.238" transform="translate(-726.53 -417.451)" fill="#ebe2db"/>
    <path id="Path_12719" data-name="Path 12719" d="M408.461,494.621a1.234,1.234,0,0,1,2.468,0,1.234,1.234,0,1,1-2.468,0" transform="translate(-360.367 -435.306)" fill="#ebe2db"/>
    <path id="Path_12720" data-name="Path 12720" d="M478.351,499.969c-4.973.763-9.707,6.738-15.937,6.188-6.306-.557-5.627-6.033-5.627-6.033a6,6,0,0,1,4.093-5.616,5.943,5.943,0,0,0,2.5-1.458v9.759a1.294,1.294,0,0,0,1.294,1.294h2.238l-.545-.467a2.157,2.157,0,0,1-.753-1.637v-8.738s-.287-4.147-4.484-4.147-5.648,2.664-5.648,2.664L457,493.75s.826-4.3,3.911-4.383,3.321,3.3.792,4.383-7.333,1.787-7.333,6.794,5.073,7.815,10.722,6.17c3.836-1.117,14-8.7,22.649-2.536,0,0-3.439-5.122-9.392-4.208" transform="translate(-400.873 -431.523)" fill="#ebe2db"/>
    <path id="Path_12721" data-name="Path 12721" d="M50.445,414.532v-8.961a1.167,1.167,0,0,0-1.167-1.168H47.043l.377.323a2.264,2.264,0,0,1,.78,1.513c-.241.207-10.4,8.89-18.478,9.414-.716.033-1.049-.25-1.049-.614q0-1.308,1.98-4.479a15.477,15.477,0,0,1,3.183-4.051,118.645,118.645,0,0,0,10.2-8.456q7.418-6.95,7.419-10.112,0-1.229-1.154-1.23-2.484,0-9.761,7.283A92.6,92.6,0,0,0,30.594,405.8c-.337.5-.845,1.286-1.391,2.28-4.673,2.568-11.589,5.744-18.721,6.8-2.729.285-7.154-.257-9.09-4.369L0,413.74s1.829,2.549,6.388,2.782h0a8.554,8.554,0,0,0,1.221.012,20.73,20.73,0,0,0,4.659-.711,62.2,62.2,0,0,0,16.212-6.318c-.271.575-.5,1.092-.69,1.562-.062.156-.124.312-.183.472a8.136,8.136,0,0,0-.614,2.9,1.869,1.869,0,0,0,2.073,2.108c.77.029,8.383-.234,19.147-9.807v7.793a2.266,2.266,0,0,1-.791,1.72l-.377.323h4.57l-.377-.323a2.266,2.266,0,0,1-.791-1.72M42.382,395.15q6.767-7.659,7.745-7.66.451,0,.451.4,0,3.883-15.5,16.6l0-.006s-.262.186-.738.5a115.133,115.133,0,0,1,8.042-9.838" transform="translate(0 -341.179)" fill="#ebe2db"/>
  </g>
</svg>
